Coordinates
version=1
nRows=21
nColumns=12
inDegrees=yes

Units are S.I. units (second, meters, Newtons, ...)
Angles are in degrees

endheader
time	SC_y	SC_z	SC_x	AC_y	AC_z	AC_x	GH_y	GH_z	GH_yy	EL_x	PS_y
       0.0              -21.79          6.601          26.25          45.91         -8.058         -12.41         -21.83        -0.3928         -137.8          30.39          25.24
   0.03196              -21.79            6.6          26.25          45.91         -8.058         -12.42         -21.81        -0.3882         -137.8           30.4          25.24
   0.06393               -21.8          6.599          26.25          45.91         -8.058         -12.42         -21.78        -0.3833         -137.7           30.4          25.24
   0.09589               -21.8          6.598          26.25          45.91         -8.057         -12.42         -21.76        -0.3781         -137.7          30.41          25.24
    0.1279               -21.8          6.597          26.26          45.91         -8.057         -12.42         -21.73        -0.3725         -137.6          30.41          25.23
    0.1598              -21.81          6.595          26.26          45.91         -8.057         -12.42          -21.7        -0.3666         -137.6          30.42          25.23
    0.1918              -21.81          6.594          26.26          45.91         -8.057         -12.42         -21.67        -0.3602         -137.5          30.42          25.23
    0.2238              -21.82          6.592          26.26          45.91         -8.057         -12.42         -21.63        -0.3535         -137.5          30.43          25.23
    0.2557              -21.82          6.591          26.27          45.91         -8.057         -12.42          -21.6        -0.3462         -137.4          30.44          25.23
    0.2877              -21.82          6.589          26.27          45.91         -8.057         -12.42         -21.56        -0.3384         -137.3          30.44          25.22
    0.3196              -21.83          6.587          26.28           45.9         -8.056         -12.42         -21.52        -0.3301         -137.2          30.45          25.22
    0.3516              -21.84          6.585          26.28           45.9         -8.056         -12.42         -21.48        -0.3211         -137.2          30.46          25.22
    0.3836              -21.84          6.583          26.28           45.9         -8.056         -12.42         -21.43        -0.3114         -137.1          30.47          25.22
    0.4155              -21.85           6.58          26.29           45.9         -8.056         -12.42         -21.38        -0.3009         -137.0          30.48          25.21
    0.4475              -21.86          6.578          26.29           45.9         -8.056         -12.42         -21.32        -0.2896         -136.9          30.49          25.21
    0.4795              -21.86          6.575           26.3           45.9         -8.055         -12.42         -21.26        -0.2773         -136.8          30.51           25.2
    0.5114              -21.87          6.572          26.31          45.89         -8.055         -12.42         -21.19         -0.264         -136.6          30.52           25.2
    0.5434              -21.88          6.569          26.31          45.89         -8.055         -12.43         -21.12        -0.2494         -136.5          30.53           25.2
    0.5754              -21.89          6.565          26.32          45.89         -8.054         -12.43         -21.04        -0.2335         -136.4          30.55          25.19
    0.6073               -21.9          6.561          26.33          45.89         -8.054         -12.43         -20.96        -0.2162         -136.2          30.57          25.19
    0.6393              -21.92          6.557          26.34          45.88         -8.054         -12.43         -20.87        -0.1971         -136.0          30.59          25.18
